<?xml version="1.0" standalone="no"?>
<!DOCTYPE svg PUBLIC "-//W3C//DTD SVG 20010904//EN"
 "http://www.w3.org/TR/2001/REC-SVG-20010904/DTD/svg10.dtd">
<svg version="1.0" xmlns="http://www.w3.org/2000/svg"
 width="376.000000pt" height="376.000000pt" viewBox="0 0 376.000000 376.000000"
 preserveAspectRatio="xMidYMid meet">
<metadata>
Created by potrace 1.14, written by Peter Selinger 2001-2017
</metadata>
<g transform="translate(0.000000,376.000000) scale(0.100000,-0.100000)"
fill="#000000" stroke="none">
<path d="M1368 3745 c-256 -35 -433 -116 -578 -263 -143 -146 -207 -347 -155
-492 39 -109 177 -185 272 -149 49 18 56 52 22 98 -34 46 -27 136 16 222 55
109 159 205 281 260 63 29 197 61 202 49 5 -12 -308 -709 -596 -1330 -126
-271 -270 -589 -276 -607 -6 -19 -10 -20 -35 -12 -42 15 -106 73 -125 114 -51
106 8 252 134 337 69 46 82 71 51 101 -19 19 -32 22 -99 22 -107 0 -172 -31
-266 -128 -114 -117 -183 -256 -190 -383 -16 -258 187 -435 589 -514 127 -26
360 -34 495 -19 168 19 397 93 559 180 l74 40 31 -30 c173 -164 438 -186 686
-55 74 39 157 99 226 164 53 49 53 54 -15 -120 l-48 -125 -99 -40 c-271 -111
-476 -290 -584 -508 -142 -288 -48 -524 220 -550 246 -25 453 189 674 696 l68
154 81 11 c128 18 181 22 347 27 85 3 164 8 175 11 36 11 55 36 55 71 0 26 -9
43 -43 77 -83 82 -221 127 -388 127 l-99 0 21 52 c21 52 83 195 189 432 81
182 105 254 96 290 -17 66 -109 116 -238 128 -57 6 -78 -7 -115 -71 -37 -64
-160 -216 -256 -319 -199 -209 -438 -330 -579 -292 -40 10 -108 63 -108 83 0
6 30 40 66 76 169 167 328 411 415 636 l23 62 31 -23 c143 -107 318 -108 503
-3 255 144 501 456 605 769 59 175 62 334 9 442 -37 75 -68 106 -147 145 -247
124 -626 16 -1042 -295 l-31 -24 -33 48 c-79 114 -241 245 -392 317 -97 46
-232 92 -306 106 -95 17 -267 19 -373 5z m538 -319 c155 -52 245 -124 326
-259 46 -77 50 -63 -51 -167 -356 -366 -604 -842 -616 -1185 -3 -76 5 -181 17
-235 8 -35 -306 -163 -466 -191 -54 -9 -84 -9 -138 1 -37 6 -70 16 -73 21 -3
4 22 68 56 141 59 127 107 233 189 418 21 47 49 110 63 140 14 30 89 201 167
380 78 179 149 343 159 365 10 22 73 165 141 318 92 208 126 277 139 277 10 0
49 -11 87 -24z m1492 -73 c15 -11 33 -39 41 -63 53 -166 -197 -572 -462 -750
-119 -80 -232 -101 -323 -61 l-47 21 7 69 c10 101 8 238 -4 314 -5 36 -8 71
-5 79 10 26 195 176 320 259 213 142 392 192 473 132z m-1094 -793 c-37 -179
-123 -377 -235 -541 -84 -122 -91 -126 -72 -42 40 181 131 388 250 566 36 54
67 97 69 95 1 -2 -4 -37 -12 -78z m92 -1949 c-105 -187 -216 -309 -299 -332
-76 -20 -86 10 -36 109 38 77 99 146 194 217 76 57 184 119 192 111 3 -3 -20
-50 -51 -105z"/>
</g>
</svg>
